<svg width="17" height="17" viewBox="0 0 17 17" fill="none" xmlns="http://www.w3.org/2000/svg">
<path d="M14.6309 5.41666C14.9988 5.40159 15.594 5.37345 15.9398 5.50107C16.0005 5.52317 16.0361 5.54729 16.064 5.60758C16.0477 6.0497 15.1336 7.11783 14.8196 7.42028C13.8363 8.36985 12.6737 8.84513 11.334 8.79288C10.838 8.78484 10.2976 8.65924 9.84399 8.45124C9.93164 8.45224 10.0203 8.45325 10.1079 8.44822C10.5423 8.4221 10.9892 8.26032 11.3841 8.07945C12.3723 7.62627 13.1987 6.93998 13.9172 6.10396C14.079 5.91606 14.2196 5.71007 14.3795 5.52016C14.4633 5.42068 14.5124 5.4247 14.6328 5.41666H14.6309Z" fill="#FAB403"/>
<path d="M2.44326 0.799861C2.50297 0.795842 2.56558 0.797852 2.62433 0.8079C2.64263 0.810914 2.65997 0.815938 2.67827 0.820963C2.6956 0.825987 2.71294 0.832016 2.73028 0.839049C2.74761 0.846083 2.76399 0.854122 2.78036 0.86216C2.79673 0.871204 2.81311 0.880247 2.82852 0.890296C2.84393 0.900344 2.85934 0.911397 2.87379 0.923455C2.88823 0.935513 2.90172 0.947571 2.9152 0.960634C2.92869 0.973696 2.94121 0.987764 2.95277 1.00183C2.96432 1.0159 2.97588 1.03097 2.98648 1.04705C3.07798 1.1827 3.11939 1.36457 3.08857 1.52836C3.05197 1.71928 2.95277 1.80871 2.80637 1.9112C2.82178 2.58142 2.76399 3.2235 2.62048 3.87664C3.00863 3.87664 3.34573 3.95904 3.70884 4.09368C3.90051 3.75104 4.12396 3.41141 4.37245 3.11096C4.51404 2.94014 4.67681 2.78238 4.80972 2.60553C4.92627 2.44979 4.95998 2.24179 5.12564 2.12623C5.27974 2.01972 5.49838 1.96245 5.68041 2.00867C5.80177 2.03881 5.91253 2.11417 5.97707 2.22772C6.0416 2.34127 6.04641 2.4729 6.0127 2.5975C5.96936 2.76028 5.86823 2.90799 5.72568 2.98938C5.54268 3.09388 5.32886 3.07881 5.13623 3.0155L5.10926 3.00646C4.698 3.40035 4.35223 3.81233 4.04113 4.29565C4.42446 4.58906 4.76349 4.94075 4.93879 5.41101C5.10445 5.85615 5.06303 6.28622 4.88389 6.71729C4.46973 7.51914 3.62408 8.16826 2.81022 8.4687C2.1861 8.6988 1.42617 8.72794 0.821308 8.41946C0.468794 8.2396 0.214522 7.95322 0.0893118 7.56335C-0.113913 6.93533 0.0565646 6.18975 0.331063 5.61399C0.714398 4.80812 1.32118 4.27656 2.13216 3.98918C2.38547 3.35313 2.45193 2.60553 2.50972 1.92527C2.32672 1.84689 2.18321 1.73535 2.10808 1.5364C2.05318 1.3907 2.04836 1.21887 2.11482 1.07619C2.18513 0.925465 2.30071 0.854122 2.44615 0.797852L2.44326 0.799861Z" fill="#FAB403"/>
<path d="M15.4569 0.00741347C15.5166 0.000379681 15.586 -0.00866376 15.6428 0.0174617C15.689 0.0395679 15.7025 0.0697127 15.7122 0.118949C15.7536 0.325943 15.6765 0.633421 15.6428 0.843429C15.4145 2.27732 14.8896 3.71623 14.096 4.91398C13.1251 6.37801 11.6746 7.61395 9.96021 7.93148C9.12997 8.08521 9.07218 7.76467 8.45576 7.31351C8.68885 7.06833 11.5427 3.73432 11.5696 3.66699C11.5754 3.65293 11.5716 3.63584 11.5716 3.61977C11.2345 3.88705 10.9157 4.20658 10.5911 4.49396C9.65778 5.31792 8.72834 6.16499 7.76326 6.94675C7.55907 6.85631 7.35392 6.78597 7.13721 6.73473C7.28746 6.4172 7.45216 6.10872 7.63034 5.80727C7.80852 5.50583 8.00019 5.21443 8.20438 4.93207C9.84848 2.63604 12.6802 0.423412 15.4569 0.00741347Z" fill="#FAB403"/>
<path d="M2.02117 5.5711C2.0934 5.62436 2.14734 5.69872 2.17912 5.78915C2.22728 5.92681 2.2215 6.08457 2.18587 6.23127V6.23228V6.23328V6.23429V6.23529V6.2363V6.2373V6.23831L2.1849 6.24635V6.24735V6.24836V6.24936V6.25037V6.25137V6.25238V6.25338V6.25439V6.25539V6.2574V6.2584V6.25941V6.26041V6.26142V6.26242V6.26343V6.26443V6.26544V6.26644V6.26745V6.26845L2.18201 6.28252V6.28353V6.28453C2.09822 6.66536 1.80446 6.91858 1.53092 6.85125L1.52033 6.84824H1.5184L1.50781 6.84522H1.50684H1.50588L1.49625 6.84221H1.49529H1.49432L1.48469 6.83819H1.48373H1.48276C1.47988 6.83719 1.47699 6.83618 1.4741 6.83417H1.47313L1.47121 6.83317L1.46543 6.83015L1.4635 6.82915L1.45965 6.82714L1.45772 6.82613L1.4558 6.82513L1.45387 6.82412L1.45194 6.82312L1.44809 6.82111L1.44617 6.8201L1.44424 6.8191L1.44231 6.81809L1.44039 6.81709L1.43653 6.81508L1.43461 6.81407L1.43075 6.81206L1.42883 6.81106L1.42401 6.80805L1.42209 6.80704L1.42016 6.80604L1.41823 6.80503L1.41245 6.80202L1.41053 6.80101C1.31132 6.74776 1.23909 6.66034 1.20152 6.5488C1.1707 6.46038 1.163 6.36391 1.16974 6.26745V6.26443V6.26142V6.25439V6.25137V6.24836V6.24534V6.23529V6.23228V6.22927V6.22826V6.22726V6.22223V6.21922V6.21218V6.20917V6.20816V6.20515L1.1707 6.19611V6.19309V6.19108V6.18907L1.17167 6.17902V6.17601V6.174V6.17299L1.17263 6.15993V6.15792V6.15692L1.17456 6.14285V6.14084V6.13984V6.13883L1.17648 6.12577V6.12275V6.12175L1.17745 6.11873L1.17937 6.10567V6.10467V6.10366L1.18226 6.08658L1.18611 6.0695L1.18997 6.05242C1.2728 5.67159 1.56752 5.41837 1.84106 5.48569L1.85165 5.48871C1.85551 5.48971 1.85936 5.49072 1.86225 5.49172C1.8661 5.49273 1.86899 5.49373 1.87284 5.49574L1.88344 5.49976L1.89403 5.50378L1.89596 5.50478L1.90463 5.5088L1.90752 5.50981L1.91618 5.51383H1.91715L1.91907 5.51483L1.9287 5.51986H1.92967L1.93063 5.52086L1.93737 5.52488L1.94026 5.52689L1.94219 5.5279L1.94893 5.53292L1.95375 5.53593L1.96049 5.54096L1.96434 5.54397H1.9653L1.96819 5.54598L1.97108 5.54799L1.9759 5.55201L1.97879 5.55402L1.98168 5.55603L1.98649 5.56005L1.98938 5.56206L1.9942 5.56608L1.99709 5.56809L1.99998 5.5701L2.00768 5.57713L2.01057 5.57914L2.01828 5.58618L2.02117 5.5711Z" fill="white"/>
<path fillRule="evenodd" clipRule="evenodd" d="M5.64007 14.5051C5.64007 14.5051 6.35762 15.0156 6.97018 15.0266C7.58275 15.0377 10.1746 13.4511 10.1746 13.4511L10.3759 11.1671C10.3759 11.1671 9.85482 9.57644 9.66412 9.37246C9.47438 9.16848 9.42237 9.44581 9.17195 9.71309L9.04096 8.55453C9.04096 8.55453 7.83606 7.45726 7.23408 7.47133C6.63211 7.48539 4.17222 10.1592 4.17222 10.1592L3.35547 11.6836C3.35547 11.6836 3.51535 12.6572 4.17319 13.3234C4.68366 13.8409 6.17847 13.1195 6.82378 12.7708C6.24878 13.5817 5.81632 14.2177 5.81632 14.2177L5.6391 14.5041L5.64007 14.5051Z" fill="#FAB403"/>
<path d="M6.03415 7.25521C6.54655 7.2311 7.03583 7.35469 7.51837 7.51848C7.50007 7.59183 7.47985 7.66518 7.45673 7.73753C6.93759 9.40956 5.82804 10.6696 4.339 11.4604C4.03561 11.6172 3.72259 11.7387 3.40475 11.8583C3.18611 11.1288 3.12158 10.4717 3.27279 9.72005C4.47673 9.26386 5.37536 8.38263 6.03415 7.25521ZM10.2759 10.8465C10.352 10.9198 10.3674 11.1348 10.3876 11.2434C10.533 12.0101 10.5032 12.7185 10.403 13.4861C10.351 13.882 10.2865 14.28 10.2942 14.6809C10.3028 15.1592 10.4175 15.6204 10.5783 16.0655C9.75963 15.4757 9.03534 15.3441 8.07796 15.2345C7.64358 15.2024 7.22076 15.0708 6.78734 15.0245C7.4914 14.7914 8.07796 14.4528 8.64237 13.9514C9.56314 13.1324 10.1805 12.1246 10.2759 10.8465ZM8.58458 8.18066C8.97947 8.44694 9.57085 9.03175 9.71629 9.51105C9.85594 9.97126 9.38689 11.2002 9.16729 11.6232C8.47189 12.9666 7.10518 14.0981 5.71053 14.5362C5.5911 14.488 5.47841 14.4297 5.3638 14.3694C5.30216 14.3322 5.24051 14.293 5.1808 14.2528C5.12012 14.2126 5.06137 14.1704 5.00262 14.1272C4.94483 14.084 4.88704 14.0388 4.83117 13.9926C4.77531 13.9464 4.71945 13.8981 4.66551 13.8499C4.61158 13.8007 4.5586 13.7504 4.50659 13.6992C4.45458 13.6479 4.4045 13.5947 4.35538 13.5404C4.30626 13.4861 4.2581 13.4309 4.2109 13.3746C4.16371 13.3183 4.11844 13.2601 4.07414 13.2018C4.91112 13.0521 5.73654 12.6451 6.40786 12.1085C7.62047 11.1389 8.38521 9.76326 8.58362 8.18367L8.58458 8.18066Z" fill="#053D27"/>
</svg>
